Coordinates
version=1
nRows=22
nColumns=32
inDegrees=yes

Units are S.I. units (second, meters, Newtons, ...)
If the header above contains a line with 'inDegrees', this indicates whether rotational values are in degrees (yes) or radians (no).

endheader
time	pelvis_tilt	pelvis_list	pelvis_rotation	pelvis_tx	pelvis_ty	pelvis_tz	hip_flexion_r	hip_adduction_r	hip_rotation_r	knee_angle_r	knee_adduction_r	med_cond_adduction_r	lat_cond_adduction_r	patella_r_constrained_knee_angle	ankle_angle_r	subtalar_angle_r	mtp_angle_r	hip_flexion_l	hip_adduction_l	hip_rotation_l	knee_angle_l	knee_adduction_l	med_cond_adduction_l	lat_cond_adduction_l	patella_l_constrained_knee_angle	ankle_angle_l	subtalar_angle_l	mtp_angle_l	lumbar_extension	lumbar_bending	lumbar_rotation
      0.71500000	      7.59022886	    -15.61898554	     -4.31061440	      0.22934781	      0.91731878	      0.25416914	    -28.74364799	      9.41035674	    -13.94332940	     -8.91906966	     -0.00000000	      0.00000000	     -0.00000000	     -0.15566713	     -3.08323796	     19.60599698	      0.00000000	     12.15541689	    -20.82646175	    -17.72220475	      9.30923927	      0.00000000	      0.00000000	     -0.00000000	      0.16247688	    -13.78561856	     18.82203687	      0.00000000	    -27.78262250	     14.09592563	     -1.08856093
      0.72000000	      7.96999809	    -15.02534305	     -4.72958879	      0.23728904	      0.91797147	      0.25360613	    -28.84839629	      8.21222230	    -14.45147314	    -10.30081695	     -0.00000000	     -0.00000000	      0.00000000	     -0.17978317	     -3.59629506	     19.62428221	     -0.00000000	     11.20324203	    -20.17891316	    -18.49829908	      9.19141792	     -0.00000000	     -0.00000000	      0.00000000	      0.16042051	    -14.43140149	     18.66402893	     -0.00000000	    -28.12542618	     13.27509425	     -0.56706872
      0.72500000	      8.35590886	    -14.40823559	     -5.10856007	      0.24521074	      0.91868334	      0.25298007	    -28.90252486	      6.98313502	    -15.05096394	    -11.75686781	     -0.00000000	     -0.00000000	      0.00000000	     -0.20519605	     -4.23918393	     19.64127342	      0.00000000	     10.30905310	    -19.49232522	    -19.23569390	      8.98795598	     -0.00000000	     -0.00000000	      0.00000000	      0.15686942	    -15.15739699	     18.51954667	      0.00000000	    -28.46712897	     12.27800183	     -0.58527973
      0.73000000	      8.77022568	    -13.72444040	     -5.48010452	      0.25313450	      0.91948150	      0.25234942	    -28.93405628	      5.66460004	    -15.73247708	    -13.27384910	     -0.00000000	      0.00000000	      0.00000000	     -0.23167237	     -4.98158863	     19.65127280	      0.00000000	      9.42021170	    -18.72594354	    -19.97589464	      8.72777032	     -0.00000000	     -0.00000000	      0.00000000	      0.15232833	    -15.90147585	     18.32566879	      0.00000000	    -28.81073855	     11.37486401	     -0.06432460
      0.73500000	      9.15924610	    -12.99293791	     -5.78102528	      0.26106509	      0.92025592	      0.25166722	    -28.94650534	      4.33577854	    -16.41225965	    -14.72956254	      0.00000000	     -0.00000000	      0.00000000	     -0.25707936	     -5.79084344	     19.66128741	      0.00000000	      8.67546666	    -17.91148946	    -20.67678256	      8.32782670	      0.00000000	     -0.00000000	      0.00000000	      0.14534800	    -16.66702488	     18.16752147	      0.00000000	    -29.08287583	     10.17182308	     -0.53086651
      0.74000000	      9.61621074	    -12.17933372	     -6.09416357	      0.26888952	      0.92119742	      0.25099665	    -28.92187965	      2.85967649	    -17.25431534	    -16.36043276	      0.00000000	     -0.00000000	      0.00000000	     -0.28554342	     -6.82077241	     19.66286460	      0.00000000	      7.94096484	    -17.01001272	    -21.49714604	      7.76409867	      0.00000000	      0.00000000	     -0.00000000	      0.13550909	    -17.35449599	     18.04618528	      0.00000000	    -29.43638793	      9.27296600	      0.35598689
      0.74500000	      9.99598369	    -11.38867010	     -6.15628281	      0.27664602	      0.92196432	      0.24989820	    -28.84416820	      1.52795869	    -18.23612493	    -17.90623214	      0.00000000	     -0.00000000	      0.00000000	     -0.31252271	     -7.96047403	     19.66405423	     -0.00000000	      7.57596393	    -16.14400240	    -22.10522197	      6.85677540	     -0.00000000	      0.00000000	     -0.00000000	      0.11967331	    -17.88344135	     18.02681979	     -0.00000000	    -29.67027825	      8.19945294	     -0.06754422
      0.75000000	     10.37055779	    -10.52880227	     -6.18649781	      0.28433338	      0.92274126	      0.24879618	    -28.70944661	      0.10914973	    -19.33705122	    -19.54630959	     -0.00000000	      0.00000000	     -0.00000000	     -0.34114746	     -9.21740656	     19.66074226	      0.00000000	      7.34529717	    -15.24422397	    -22.81305143	      5.71188108	     -0.00000000	     -0.00000000	      0.00000000	      0.09969113	    -18.28101894	     18.11120425	     -0.00000000	    -29.89133958	      7.17762368	     -0.16593823
      0.75500000	     10.71711979	     -9.59689172	     -6.21303270	      0.29202758	      0.92347699	      0.24772653	    -28.50411231	     -1.41210449	    -20.52341357	    -21.27918767	      0.00000000	      0.00000000	     -0.00000000	     -0.37139189	    -10.52373164	     19.65350776	      0.00000000	      7.24303139	    -14.31111021	    -23.64174630	      4.36170997	      0.00000000	     -0.00000000	      0.00000000	      0.07612620	    -18.52922398	     18.29107863	      0.00000000	    -30.06186114	      6.24529286	      0.26616422
      0.76000000	     10.98062844	     -8.64119632	     -6.09111747	      0.29969318	      0.92401991	      0.24637544	    -28.19268696	     -2.93250822	    -21.90289162	    -23.09690434	      0.00000000	      0.00000000	     -0.00000000	     -0.40311703	    -11.96060592	     19.64278927	      0.00000000	      7.37116614	    -13.37682192	    -24.33445418	      2.81815547	     -0.00000000	      0.00000000	     -0.00000000	      0.04918609	    -18.61370344	     18.45311671	     -0.00000000	    -30.12958376	      5.14848991	     -0.25817941
      0.76500000	     11.13947807	     -7.67932133	     -5.87344738	      0.30738848	      0.92433883	      0.24484502	    -27.77436191	     -4.44173696	    -23.34981561	    -24.96710355	      0.00000000	      0.00000000	     -0.00000000	     -0.43575816	    -13.41650904	     19.62586961	      0.00000000	      7.70054357	    -12.47078839	    -24.91965300	      1.12121959	     -0.00000000	     -0.00000000	      0.00000000	      0.01956897	    -18.55330785	     18.59631943	      0.00000000	    -30.06576782	      4.18590442	     -0.62705838
      0.77000000	     11.25807001	     -6.64738927	     -5.75622137	      0.31520471	      0.92457976	      0.24351491	    -27.27334995	     -6.12290405	    -24.77396211	    -26.96345612	      0.00000000	      0.00000000	     -0.00000000	     -0.47060109	    -14.93806199	     19.60084987	     -0.00000000	      7.93097438	    -11.49006197	    -25.50511762	     -0.37808304	      0.00000000	      0.00000000	     -0.00000000	     -0.00659879	    -18.53224818	     18.68182258	     -0.00000000	    -29.93605438	      3.20842565	     -0.59287852
      0.77500000	     11.21066601	     -5.61467663	     -5.34789912	      0.32294636	      0.92439345	      0.24159460	    -26.63572751	     -7.73359876	    -26.47035748	    -29.04630669	      0.00000000	      0.00000000	     -0.00000000	     -0.50695369	    -16.45038057	     19.56633996	     -0.00000000	      8.59920798	    -10.54188884	    -25.90674476	     -2.27966810	      0.00000000	     -0.00000000	      0.00000000	     -0.03978771	    -18.17053094	     18.79026807	     -0.00000000	    -29.61699460	      2.32375865	     -1.14498601
      0.78000000	     11.09984543	     -4.52577940	     -5.01577031	      0.33082726	      0.92407471	      0.23980715	    -25.93097087	     -9.48514822	    -28.07791825	    -31.19913735	     -0.00000000	      0.00000000	     -0.00000000	     -0.54452767	    -17.94299111	     19.51515822	      0.00000000	      9.19346393	     -9.51833985	    -26.28978073	     -3.98689525	      0.00000000	     -0.00000000	      0.00000000	     -0.06958445	    -17.78790987	     18.84548082	      0.00000000	    -29.21031258	      1.26735573	     -1.90693888
      0.78500000	     10.89814483	     -3.44334788	     -4.56928550	      0.33867077	      0.92349746	      0.23776642	    -25.15693047	    -11.24217893	    -29.73112424	    -33.43540598	      0.00000000	      0.00000000	     -0.00000000	     -0.58355792	    -19.38652547	     19.44100117	     -0.00000000	      9.92174625	     -8.49215144	    -26.53067733	     -5.76957871	     -0.00000000	     -0.00000000	      0.00000000	     -0.10069815	    -17.22419256	     18.87632864	     -0.00000000	    -28.70402165	      0.31424226	     -2.62850160
      0.79000000	     10.73707989	     -2.20546852	     -4.34269545	      0.34681087	      0.92305049	      0.23613033	    -24.44025835	    -13.26105429	    -31.11967659	    -35.63067319	     -0.00000000	     -0.00000000	      0.00000000	     -0.62187256	    -20.78536449	     19.32644903	      0.00000000	     10.21784239	     -7.19310268	    -26.71316390	     -6.84582434	     -0.00000000	      0.00000000	     -0.00000000	     -0.11948217	    -16.87643941	     18.81050954	      0.00000000	    -28.20409571	     -0.78425243	     -2.82297016
      0.79500000	     10.54221366	     -0.93832106	     -4.10584753	      0.35491208	      0.92250719	      0.23443378	    -23.69112007	    -15.33456329	    -32.40665798	    -37.86786197	      0.00000000	     -0.00000000	      0.00000000	     -0.66091887	    -22.08804973	     19.13774901	      0.00000000	     10.48596877	     -5.82562790	    -26.84218371	     -7.80167045	     -0.00000000	      0.00000000	     -0.00000000	     -0.13616484	    -16.45091329	     18.72364806	     -0.00000000	    -27.66616658	     -1.98775237	     -3.26440680
      0.80000000	     10.34016319	      0.35016320	     -3.92775590	      0.36302873	      0.92197597	      0.23283385	    -22.92430664	    -17.45473963	    -33.48368705	    -40.10502713	      0.00000000	     -0.00000000	      0.00000000	     -0.69996477	    -23.29922367	     18.81454379	      0.00000000	     10.64885501	     -4.39582274	    -26.92165472	     -8.55049395	     -0.00000000	      0.00000000	     -0.00000000	     -0.14923427	    -16.00415850	     18.58271477	      0.00000000	    -27.12425560	     -3.11819035	     -3.20468881
      0.80500000	     10.09782717	      1.60883047	     -3.77428465	      0.37109410	      0.92140439	      0.23128103	    -22.09282279	    -19.53646683	    -34.36500330	    -42.32387889	     -0.00000000	     -0.00000000	      0.00000000	     -0.73869104	    -24.45457562	     18.24151950	     -0.00000000	     10.80315427	     -2.98285709	    -26.99481944	     -9.20407548	      0.00000000	      0.00000000	     -0.00000000	     -0.16064142	    -15.50852883	     18.42409428	     -0.00000000	    -26.56058054	     -4.40466619	     -3.67547358
      0.81000000	      9.88820907	      2.77046227	     -3.67236955	      0.37902528	      0.92100450	      0.22986531	    -21.23577215	    -21.47815648	    -34.94638709	    -44.48297894	      0.00000000	     -0.00000000	      0.00000000	     -0.77637444	    -25.53823524	     17.23056435	     -0.00000000	     10.80494173	     -1.62869501	    -26.93696415	     -9.62040807	     -0.00000000	     -0.00000000	      0.00000000	     -0.16790780	    -15.04319368	     18.18705643	     -0.00000000	    -26.05830400	     -5.46546572	     -3.57866992
      0.81500000	      9.71454312	      3.95441016	     -3.74682508	      0.38695334	      0.92073790	      0.22877737	    -20.30579297	    -23.47622977	    -35.25449827	    -46.61908103	     -0.00000000	     -0.00000000	      0.00000000	     -0.81365646	    -26.60300504	     15.83409209	     -0.00000000	     10.62091791	     -0.22409627	    -26.95880981	     -9.74114513	     -0.00000000	     -0.00000000	      0.00000000	     -0.17001506	    -14.62465574	     17.89397364	     -0.00000000	    -25.59081072	     -6.64155299	     -3.34840599
      0.82000000	      9.58103066	      5.03916682	     -3.82121467	      0.39476336	      0.92062819	      0.22767240	    -19.36995352	    -25.32578365	    -35.38493662	    -48.67982256	      0.00000000	      0.00000000	     -0.00000000	     -0.84962318	    -27.56958757	     14.22212493	      0.00000000	     10.31994628	      1.12620768	    -26.83748837	     -9.67171216	      0.00000000	     -0.00000000	      0.00000000	     -0.16880322	    -14.25645384	     17.50505600	      0.00000000	    -25.19474116	     -7.78079670	     -3.36175516
